<svg width="32" height="32" viewBox="0 0 32 32" fill="none" xmlns="http://www.w3.org/2000/svg">
<g filter="url(#filter0_i_6358_44250)">
<rect width="32" height="32" rx="8" fill="#709A7E"/>
</g>
<path d="M6.5 15C6.5 10.5217 6.5 8.28249 7.89124 6.89124C9.28249 5.5 11.5217 5.5 16 5.5C20.4783 5.5 22.7175 5.5 24.1088 6.89124C25.5 8.28249 25.5 10.5217 25.5 15C25.5 19.4783 25.5 21.7175 24.1088 23.1088C22.7175 24.5 20.4783 24.5 16 24.5C11.5217 24.5 9.28249 24.5 7.89124 23.1088C6.5 21.7175 6.5 19.4783 6.5 15Z" stroke="white" stroke-width="1.5" stroke-linejoin="round"/>
<path d="M15 10L16 11.6667M21 20L17.4 14" stroke="white" stroke-width="1.5" stroke-linecap="round" stroke-linejoin="round"/>
<path d="M17 10L11 20" stroke="white" stroke-width="1.5" stroke-linecap="round" stroke-linejoin="round"/>
<path d="M10.5 17H16.5M21.5 17L19.5 17" stroke="white" stroke-width="1.5" stroke-linecap="round" stroke-linejoin="round"/>
<defs>
<filter id="filter0_i_6358_44250" x="0" y="0" width="32" height="32" filterUnits="userSpaceOnUse" color-interpolation-filters="sRGB">
<feFlood flood-opacity="0" result="BackgroundImageFix"/>
<feBlend mode="normal" in="SourceGraphic" in2="BackgroundImageFix" result="shape"/>
<feColorMatrix in="SourceAlpha" type="matrix" values="0 0 0 0 0 0 0 0 0 0 0 0 0 0 0 0 0 0 127 0" result="hardAlpha"/>
<feOffset/>
<feGaussianBlur stdDeviation="3.5"/>
<feComposite in2="hardAlpha" operator="arithmetic" k2="-1" k3="1"/>
<feColorMatrix type="matrix" values="0 0 0 0 0 0 0 0 0 0 0 0 0 0 0 0 0 0 0.4 0"/>
<feBlend mode="normal" in2="shape" result="effect1_innerShadow_6358_44250"/>
</filter>
</defs>
</svg>
