<svg width="32" height="32" viewBox="0 0 32 32" fill="none" xmlns="http://www.w3.org/2000/svg">
<g clip-path="url(#clip0_6358_44176)">
<rect width="32" height="32" rx="8" fill="#A578F5"/>
<g filter="url(#filter0_i_6358_44176)">
<rect width="32" height="32" rx="8" fill="#A578F5"/>
</g>
<g clip-path="url(#clip1_6358_44176)">
<path d="M30 22V23.5H22.4297L24.9023 25.9727L23.8477 27.0273L19.5703 22.75L23.8477 18.4727L24.9023 19.5273L22.4297 22H30ZM21.1406 16.9258L20.1094 18.0156C19.4141 17.3594 18.6289 16.8594 17.7539 16.5156C16.8789 16.1719 15.9609 16 15 16C14.3125 16 13.6484 16.0898 13.0078 16.2695C12.3672 16.4492 11.7695 16.6992 11.2148 17.0195C10.6602 17.3398 10.1562 17.7305 9.70312 18.1914C9.25 18.6523 8.85938 19.1602 8.53125 19.7148C8.20312 20.2695 7.94922 20.8672 7.76953 21.5078C7.58984 22.1484 7.5 22.8125 7.5 23.5H6C6 22.5859 6.13672 21.6914 6.41016 20.8164C6.68359 19.9414 7.07812 19.1328 7.59375 18.3906C8.10938 17.6484 8.72266 16.9883 9.43359 16.4102C10.1445 15.832 10.9375 15.3906 11.8125 15.0859C11.375 14.8047 10.9844 14.4805 10.6406 14.1133C10.2969 13.7461 10 13.3438 9.75 12.9062C9.5 12.4688 9.31641 12.0078 9.19922 11.5234C9.08203 11.0391 9.01562 10.5312 9 10C9 9.17188 9.15625 8.39453 9.46875 7.66797C9.78125 6.94141 10.207 6.30469 10.7461 5.75781C11.2852 5.21094 11.9219 4.78125 12.6562 4.46875C13.3906 4.15625 14.1719 4 15 4C15.8281 4 16.6055 4.15625 17.332 4.46875C18.0586 4.78125 18.6953 5.20703 19.2422 5.74609C19.7891 6.28516 20.2188 6.92188 20.5312 7.65625C20.8438 8.39062 21 9.17188 21 10C21 11.0703 20.7539 12.0391 20.2617 12.9062C19.7695 13.7734 19.0781 14.5 18.1875 15.0859C18.7344 15.2891 19.2539 15.5469 19.7461 15.8594C20.2383 16.1719 20.7031 16.5273 21.1406 16.9258ZM10.5 10C10.5 10.625 10.6172 11.207 10.8516 11.7461C11.0859 12.2852 11.4062 12.7617 11.8125 13.1758C12.2188 13.5898 12.6953 13.9141 13.2422 14.1484C13.7891 14.3828 14.375 14.5 15 14.5C15.6172 14.5 16.1992 14.3828 16.7461 14.1484C17.293 13.9141 17.7695 13.5938 18.1758 13.1875C18.582 12.7812 18.9062 12.3047 19.1484 11.7578C19.3906 11.2109 19.5078 10.625 19.5 10C19.5 9.38281 19.3828 8.80078 19.1484 8.25391C18.9141 7.70703 18.5938 7.23047 18.1875 6.82422C17.7812 6.41797 17.3008 6.09375 16.7461 5.85156C16.1914 5.60938 15.6094 5.49219 15 5.5C14.375 5.5 13.793 5.61719 13.2539 5.85156C12.7148 6.08594 12.2383 6.40625 11.8242 6.8125C11.4102 7.21875 11.0859 7.69922 10.8516 8.25391C10.6172 8.80859 10.5 9.39062 10.5 10Z" fill="white"/>
</g>
</g>
<defs>
<filter id="filter0_i_6358_44176" x="0" y="0" width="32" height="32" filterUnits="userSpaceOnUse" color-interpolation-filters="sRGB">
<feFlood flood-opacity="0" result="BackgroundImageFix"/>
<feBlend mode="normal" in="SourceGraphic" in2="BackgroundImageFix" result="shape"/>
<feColorMatrix in="SourceAlpha" type="matrix" values="0 0 0 0 0 0 0 0 0 0 0 0 0 0 0 0 0 0 127 0" result="hardAlpha"/>
<feOffset/>
<feGaussianBlur stdDeviation="3.5"/>
<feComposite in2="hardAlpha" operator="arithmetic" k2="-1" k3="1"/>
<feColorMatrix type="matrix" values="0 0 0 0 0 0 0 0 0 0 0 0 0 0 0 0 0 0 0.4 0"/>
<feBlend mode="normal" in2="shape" result="effect1_innerShadow_6358_44176"/>
</filter>
<clipPath id="clip0_6358_44176">
<rect width="32" height="32" rx="8" fill="white"/>
</clipPath>
<clipPath id="clip1_6358_44176">
<rect width="24" height="24" fill="white" transform="translate(6 4)"/>
</clipPath>
</defs>
</svg>
