<svg width="25" height="25" viewBox="0 0 25 25" fill="none" xmlns="http://www.w3.org/2000/svg">
<path d="M18.6308 2.08447V4.13138M6.34937 2.08447V4.13138" stroke="#667085" stroke-width="1.22814" stroke-linecap="round" stroke-linejoin="round"/>
<path d="M3.27881 8.2251H21.701" stroke="#667085" stroke-width="1.22814" stroke-linecap="round" stroke-linejoin="round"/>
<path d="M2.76709 12.5679C2.76709 8.10844 2.76709 5.87869 4.04857 4.4933C5.33006 3.10791 7.39258 3.10791 11.5176 3.10791H13.4622C17.5872 3.10791 19.6497 3.10791 20.9312 4.4933C22.2127 5.87869 22.2127 8.10844 22.2127 12.5679V13.0935C22.2127 17.553 22.2127 19.7827 20.9312 21.1681C19.6497 22.5535 17.5872 22.5535 13.4622 22.5535H11.5176C7.39258 22.5535 5.33006 22.5535 4.04857 21.1681C2.76709 19.7827 2.76709 17.553 2.76709 13.0935V12.5679Z" stroke="#667085" stroke-width="1.22814" stroke-linecap="round" stroke-linejoin="round"/>
<path d="M9.41968 15.3892L15.5604 15.3892" stroke="#667085" stroke-width="1.22814" stroke-linecap="round" stroke-linejoin="round"/>
</svg>
