<svg width="32" height="32" viewBox="0 0 32 32" fill="none" xmlns="http://www.w3.org/2000/svg">
<g filter="url(#filter0_i_6358_44138)">
<rect width="32" height="32" rx="8" fill="#1097FA"/>
</g>
<path d="M6 10C6 8.11438 6 7.17157 6.58579 6.58579C7.17157 6 8.11438 6 10 6C11.8856 6 12.8284 6 13.4142 6.58579C14 7.17157 14 8.11438 14 10V12C14 13.8856 14 14.8284 13.4142 15.4142C12.8284 16 11.8856 16 10 16C8.11438 16 7.17157 16 6.58579 15.4142C6 14.8284 6 13.8856 6 12V10Z" stroke="white" stroke-width="1.5"/>
<path d="M6 23C6 22.0681 6 21.6022 6.15224 21.2346C6.35523 20.7446 6.74458 20.3552 7.23463 20.1522C7.60218 20 8.06812 20 9 20H11C11.9319 20 12.3978 20 12.7654 20.1522C13.2554 20.3552 13.6448 20.7446 13.8478 21.2346C14 21.6022 14 22.0681 14 23C14 23.9319 14 24.3978 13.8478 24.7654C13.6448 25.2554 13.2554 25.6448 12.7654 25.8478C12.3978 26 11.9319 26 11 26H9C8.06812 26 7.60218 26 7.23463 25.8478C6.74458 25.6448 6.35523 25.2554 6.15224 24.7654C6 24.3978 6 23.9319 6 23Z" stroke="white" stroke-width="1.5"/>
<path d="M18 20C18 18.1144 18 17.1716 18.5858 16.5858C19.1716 16 20.1144 16 22 16C23.8856 16 24.8284 16 25.4142 16.5858C26 17.1716 26 18.1144 26 20V22C26 23.8856 26 24.8284 25.4142 25.4142C24.8284 26 23.8856 26 22 26C20.1144 26 19.1716 26 18.5858 25.4142C18 24.8284 18 23.8856 18 22V20Z" stroke="white" stroke-width="1.5"/>
<path d="M18 9C18 8.06812 18 7.60218 18.1522 7.23463C18.3552 6.74458 18.7446 6.35523 19.2346 6.15224C19.6022 6 20.0681 6 21 6H23C23.9319 6 24.3978 6 24.7654 6.15224C25.2554 6.35523 25.6448 6.74458 25.8478 7.23463C26 7.60218 26 8.06812 26 9C26 9.93188 26 10.3978 25.8478 10.7654C25.6448 11.2554 25.2554 11.6448 24.7654 11.8478C24.3978 12 23.9319 12 23 12H21C20.0681 12 19.6022 12 19.2346 11.8478C18.7446 11.6448 18.3552 11.2554 18.1522 10.7654C18 10.3978 18 9.93188 18 9Z" stroke="white" stroke-width="1.5"/>
<defs>
<filter id="filter0_i_6358_44138" x="0" y="0" width="32" height="32" filterUnits="userSpaceOnUse" color-interpolation-filters="sRGB">
<feFlood flood-opacity="0" result="BackgroundImageFix"/>
<feBlend mode="normal" in="SourceGraphic" in2="BackgroundImageFix" result="shape"/>
<feColorMatrix in="SourceAlpha" type="matrix" values="0 0 0 0 0 0 0 0 0 0 0 0 0 0 0 0 0 0 127 0" result="hardAlpha"/>
<feOffset/>
<feGaussianBlur stdDeviation="3.5"/>
<feComposite in2="hardAlpha" operator="arithmetic" k2="-1" k3="1"/>
<feColorMatrix type="matrix" values="0 0 0 0 0 0 0 0 0 0 0 0 0 0 0 0 0 0 0.4 0"/>
<feBlend mode="normal" in2="shape" result="effect1_innerShadow_6358_44138"/>
</filter>
</defs>
</svg>
