<svg width="24" height="24" viewBox="0 0 24 24" fill="none" xmlns="http://www.w3.org/2000/svg">
<path d="M11.0697 3.00006V2.25006V3.00006ZM12.9303 3.00006V3.75006V3.00006ZM15.6462 3.10962L15.5158 3.8482H15.5158L15.6462 3.10962ZM8.35384 3.10962L8.48421 3.8482L8.35384 3.10962ZM2.57336 9.05118L3.28904 9.27548V9.27548L2.57336 9.05118ZM2.00132 11.3157L1.2516 11.2953V11.2953L2.00132 11.3157ZM21.4266 9.05118L20.711 9.27548L21.4266 9.05118ZM21.9987 11.3157L22.7484 11.2953L21.9987 11.3157ZM5.72321 15.7496C6.13716 15.7644 6.48473 15.4408 6.49954 15.0269C6.51435 14.6129 6.19078 14.2653 5.77683 14.2505L5.72321 15.7496ZM18.2232 14.2505C17.8092 14.2653 17.4857 14.6129 17.5005 15.0269C17.5153 15.4408 17.8629 15.7644 18.2768 15.7496L18.2232 14.2505ZM11.0697 3.75006H12.9303V2.25006H11.0697V3.75006ZM12.9303 3.75006C14.3564 3.75006 14.9756 3.75284 15.5158 3.8482L15.7765 2.37103C15.0755 2.24728 14.2978 2.25006 12.9303 2.25006V3.75006ZM11.0697 2.25006C9.70217 2.25006 8.92455 2.24728 8.22347 2.37103L8.48421 3.8482C9.02445 3.75284 9.64364 3.75006 11.0697 3.75006V2.25006ZM1.85769 8.82688C1.50217 9.96123 1.26826 10.6825 1.2516 11.2953L2.75104 11.3361C2.76053 10.987 2.89926 10.5191 3.28904 9.27548L1.85769 8.82688ZM20.711 9.27548C21.1007 10.5192 21.2395 10.987 21.249 11.3361L22.7484 11.2953C22.7317 10.6824 22.4978 9.96124 22.1423 8.82689L20.711 9.27548ZM22.1423 8.82689C21.2148 5.86754 19.5682 3.04033 15.7765 2.37103L15.5158 3.8482C18.477 4.37089 19.8448 6.51181 20.711 9.27548L22.1423 8.82689ZM3.28904 9.27548C4.1552 6.51181 5.52303 4.37089 8.48421 3.8482L8.22347 2.37103C4.43176 3.04033 2.78517 5.86754 1.85769 8.82688L3.28904 9.27548ZM5.77683 14.2505C4.04887 14.1887 2.70813 12.9148 2.75104 11.3361L1.2516 11.2953C1.18212 13.8515 3.33575 15.6642 5.72321 15.7496L5.77683 14.2505ZM18.2768 15.7496C20.6643 15.6642 22.8179 13.8515 22.7484 11.2953L21.249 11.3361C21.2919 12.9148 19.9511 14.1887 18.2232 14.2505L18.2768 15.7496Z" fill="#414042"/>
<path d="M12 10L12 21M12 10C12.7002 10 14.0085 11.9943 14.5 12.5M12 10C11.2998 10 9.99153 11.9943 9.5 12.5" stroke="#414042" stroke-width="1.5" stroke-linecap="round" stroke-linejoin="round"/>
</svg>
