<svg width="19" height="19" viewBox="0 0 19 19" fill="none" xmlns="http://www.w3.org/2000/svg">
<path d="M10.797 3.28518C11.3559 2.67965 11.6353 2.37689 11.9323 2.20029C12.6488 1.77416 13.531 1.76091 14.2595 2.16534C14.5614 2.33294 14.8494 2.62718 15.4255 3.21566C16.0015 3.80415 16.2896 4.09839 16.4537 4.40679C16.8496 5.15093 16.8366 6.05219 16.4194 6.78412C16.2466 7.08746 15.9502 7.37293 15.3574 7.94385L8.30467 14.7368C7.18136 15.8188 6.6197 16.3597 5.91774 16.6339C5.21579 16.9081 4.4441 16.8879 2.90072 16.8475L2.69073 16.842C2.22088 16.8298 1.98595 16.8236 1.84939 16.6686C1.71283 16.5136 1.73147 16.2743 1.76876 15.7957L1.78901 15.5358C1.89396 14.1888 1.94643 13.5152 2.20948 12.9098C2.47253 12.3043 2.92628 11.8127 3.83377 10.8295L10.797 3.28518Z" stroke="#414042" stroke-width="1.3" stroke-linejoin="round"/>
<path d="M9.9917 3.37109L15.2417 8.62109" stroke="#414042" stroke-width="1.3" stroke-linejoin="round"/>
<path d="M10.7417 16.8711L16.7417 16.8711" stroke="#414042" stroke-width="1.3" stroke-linecap="round" stroke-linejoin="round"/>
</svg>
