<svg width="26" height="25" viewBox="0 0 26 25" fill="none" xmlns="http://www.w3.org/2000/svg">
<path d="M20.3983 10.272C18.3463 9.62532 15.883 9.24854 13.2341 9.24854C10.5852 9.24854 8.12196 9.62532 6.06995 10.272V13.8541C8.12196 13.2074 10.5852 12.8306 13.2341 12.8306C15.883 12.8306 18.3463 13.2074 20.3983 13.8541V10.272Z" stroke="#667085" stroke-width="1.22814" stroke-linejoin="round"/>
<path d="M20.3983 13.3423V15.4129C20.3983 17.5939 19.342 19.615 17.6157 20.7372L16.1829 21.6685C14.3679 22.8483 12.1004 22.8483 10.2854 21.6685L8.85254 20.7372C7.12623 19.615 6.06995 17.5939 6.06995 15.4129V13.3423" stroke="#667085" stroke-width="1.22814" stroke-linecap="round"/>
<path d="M20.3983 10.2721L21.5504 9.66529C22.8431 8.81751 23.4895 8.39362 23.4682 7.78798C23.4469 7.18234 22.7727 6.81389 21.4243 6.07697L16.5863 3.43294C14.9414 2.53396 14.1189 2.08447 13.2342 2.08447C12.3494 2.08447 11.527 2.53396 9.88203 3.43294L5.04401 6.07697C3.69562 6.81389 3.02142 7.18234 3.00014 7.78798C2.97886 8.39362 3.62522 8.81751 4.91793 9.66529L6.06999 10.2721" stroke="#667085" stroke-width="1.22814" stroke-linecap="round"/>
</svg>
