<svg width="104" height="35" viewBox="0 0 104 35" fill="none" xmlns="http://www.w3.org/2000/svg">
<path d="M32.623 0.871243V34.5508H33.3827V0.871243H32.623Z" fill="black"/>
<path d="M5.28758 30.0771C8.01475 30.0771 10.2256 27.8663 10.2256 25.1391C10.2256 22.412 8.01475 20.2012 5.28758 20.2012C2.56041 20.2012 0.349609 22.412 0.349609 25.1391C0.349609 27.8663 2.56041 30.0771 5.28758 30.0771Z" fill="black"/>
<path d="M20.4807 20.201V15.3896C23.1396 15.263 25.1655 13.1106 25.1655 10.4517C25.1655 7.66613 23.013 5.51367 20.2275 5.51367C17.5686 5.51367 15.4161 7.53951 15.2895 10.1984H10.3515C10.2249 7.53951 8.07248 5.51367 5.41357 5.51367C2.62804 5.51367 0.475586 7.66613 0.475586 10.4517C0.475586 13.2372 2.62804 15.3896 5.41357 15.3896C8.07248 15.3896 10.2249 13.3638 10.3515 10.7049H15.2895C15.4161 13.2372 17.442 15.263 19.9743 15.3896V20.201C17.3154 20.3276 15.2895 22.4801 15.2895 25.139C15.2895 27.9245 17.5686 30.0769 20.2275 30.0769C23.013 30.0769 25.1655 27.9245 25.1655 25.139C25.1655 22.4801 23.013 20.3276 20.4807 20.201Z" fill="black"/>
<path d="M43.3029 27.3359V7.07757H45.1526V16.366H56.6469V7.07757H58.4966V27.3359H56.6469V18.0278H45.1526V27.3359H43.3029ZM63.8679 27.3359V7.07757H70.4063C71.844 7.07757 73.0442 7.33805 74.007 7.85902C74.9764 8.37339 75.705 9.0889 76.193 10.0055C76.6876 10.9156 76.9349 11.9608 76.9349 13.1412C76.9349 14.3217 76.6876 15.3636 76.193 16.267C75.705 17.1705 74.9796 17.8761 74.0168 18.3839C73.054 18.8917 71.8604 19.1455 70.436 19.1455H64.867V17.454H70.3866C71.4417 17.454 72.3188 17.2793 73.0178 16.9298C73.7234 16.5803 74.2477 16.0824 74.5906 15.4361C74.9401 14.7899 75.1148 14.0249 75.1148 13.1412C75.1148 12.2576 74.9401 11.486 74.5906 10.8266C74.2411 10.1605 73.7135 9.64614 73.0079 9.28344C72.3089 8.92074 71.4252 8.73939 70.3569 8.73939H65.7176V27.3359H63.8679ZM72.8002 18.1959L77.7856 27.3359H75.649L70.713 18.1959H72.8002ZM81.4406 7.07757H83.5773L90.9268 24.7245H91.1049L98.4545 7.07757H100.591V27.3359H98.8502V10.9848H98.6919L91.8567 27.3359H90.1751L83.3399 10.9848H83.1816V27.3359H81.4406V7.07757Z" fill="#27C165"/>
</svg>
