<svg width="32" height="32" viewBox="0 0 32 32" fill="none" xmlns="http://www.w3.org/2000/svg">
<g clip-path="url(#clip0_6358_44234)">
<rect width="32" height="32" rx="8" fill="#DE725B"/>
<g filter="url(#filter0_i_6358_44234)">
<rect width="32" height="32" rx="8" fill="#DE725B"/>
</g>
<path d="M6 15.5C6 11.0217 6 8.78249 7.39124 7.39124C8.78249 6 11.0217 6 15.5 6C19.9783 6 22.2175 6 23.6088 7.39124C25 8.78249 25 11.0217 25 15.5C25 19.9783 25 22.2175 23.6088 23.6088C22.2175 25 19.9783 25 15.5 25C11.0217 25 8.78249 25 7.39124 23.6088C6 22.2175 6 19.9783 6 15.5Z" stroke="white" stroke-width="1.5"/>
<path d="M6 10.5H25" stroke="white" stroke-width="1.5" stroke-linejoin="round"/>
<path d="M14.5 19.5H20.5M10.5 19.5H11.5" stroke="white" stroke-width="1.5" stroke-linecap="round" stroke-linejoin="round"/>
<path d="M14.5 15.5H20.5M10.5 15.5H11.5" stroke="white" stroke-width="1.5" stroke-linecap="round" stroke-linejoin="round"/>
</g>
<defs>
<filter id="filter0_i_6358_44234" x="0" y="0" width="32" height="32" filterUnits="userSpaceOnUse" color-interpolation-filters="sRGB">
<feFlood flood-opacity="0" result="BackgroundImageFix"/>
<feBlend mode="normal" in="SourceGraphic" in2="BackgroundImageFix" result="shape"/>
<feColorMatrix in="SourceAlpha" type="matrix" values="0 0 0 0 0 0 0 0 0 0 0 0 0 0 0 0 0 0 127 0" result="hardAlpha"/>
<feOffset/>
<feGaussianBlur stdDeviation="3.5"/>
<feComposite in2="hardAlpha" operator="arithmetic" k2="-1" k3="1"/>
<feColorMatrix type="matrix" values="0 0 0 0 0 0 0 0 0 0 0 0 0 0 0 0 0 0 0.4 0"/>
<feBlend mode="normal" in2="shape" result="effect1_innerShadow_6358_44234"/>
</filter>
<clipPath id="clip0_6358_44234">
<rect width="32" height="32" rx="8" fill="white"/>
</clipPath>
</defs>
</svg>
