<svg width="32" height="32" viewBox="0 0 32 32" fill="none" xmlns="http://www.w3.org/2000/svg">
<g clip-path="url(#clip0_6358_44152)">
<rect width="32" height="32" rx="8" fill="#27C165"/>
<g filter="url(#filter0_i_6358_44152)">
<rect width="32" height="32" rx="8" fill="#27C165"/>
</g>
<path d="M12 13C11.4477 13 11 13.4477 11 14C11 14.5523 11.4477 15 12 15H20C20.5523 15 21 14.5523 21 14C21 13.4477 20.5523 13 20 13H12Z" fill="white"/>
<path d="M12 17C11.4477 17 11 17.4477 11 18C11 18.5523 11.4477 19 12 19H16C16.5523 19 17 18.5523 17 18C17 17.4477 16.5523 17 16 17H12Z" fill="white"/>
<path d="M12 21C11.4477 21 11 21.4477 11 22C11 22.5523 11.4477 23 12 23H20C20.5523 23 21 22.5523 21 22C21 21.4477 20.5523 21 20 21H12Z" fill="white"/>
<path fill-rule="evenodd" clip-rule="evenodd" d="M24.8788 9.13758C24.7983 8.94282 24.6801 8.76587 24.5311 8.61689L21.3835 5.46933C21.0838 5.16919 20.6771 5.00037 20.2529 5H8.6C8.17565 5 7.76869 5.16857 7.46863 5.46863C7.16857 5.76869 7 6.17565 7 6.6V25.4C7 25.6101 7.04139 25.8182 7.12179 26.0123C7.2022 26.2064 7.32005 26.3828 7.46863 26.5314C7.6172 26.6799 7.79358 26.7978 7.98771 26.8782C8.18183 26.9586 8.38989 27 8.6 27H23.4C23.6101 27 23.8182 26.9586 24.0123 26.8782C24.2064 26.7978 24.3828 26.6799 24.5314 26.5314C24.6799 26.3828 24.7978 26.2064 24.8782 26.0123C24.9586 25.8182 25 25.6101 25 25.4V9.75031L24 9.75L25 9.75245L25 9.75031C25.0002 9.54009 24.959 9.33188 24.8788 9.13758ZM19 9.5C19 10.3284 19.6716 11 20.5 11H23V25H9V7H19V9.5ZM22.0858 9L21 7.91421V9H22.0858Z" fill="white"/>
</g>
<defs>
<filter id="filter0_i_6358_44152" x="0" y="0" width="32" height="32" filterUnits="userSpaceOnUse" color-interpolation-filters="sRGB">
<feFlood flood-opacity="0" result="BackgroundImageFix"/>
<feBlend mode="normal" in="SourceGraphic" in2="BackgroundImageFix" result="shape"/>
<feColorMatrix in="SourceAlpha" type="matrix" values="0 0 0 0 0 0 0 0 0 0 0 0 0 0 0 0 0 0 127 0" result="hardAlpha"/>
<feOffset/>
<feGaussianBlur stdDeviation="3.5"/>
<feComposite in2="hardAlpha" operator="arithmetic" k2="-1" k3="1"/>
<feColorMatrix type="matrix" values="0 0 0 0 0 0 0 0 0 0 0 0 0 0 0 0 0 0 0.4 0"/>
<feBlend mode="normal" in2="shape" result="effect1_innerShadow_6358_44152"/>
</filter>
<clipPath id="clip0_6358_44152">
<rect width="32" height="32" rx="8" fill="white"/>
</clipPath>
</defs>
</svg>
