<svg width="32" height="32" viewBox="0 0 32 32" fill="none" xmlns="http://www.w3.org/2000/svg">
<g filter="url(#filter0_i_6358_44205)">
<rect width="32" height="32" rx="8" fill="#EF5596"/>
</g>
<path d="M18 6.20004C17.3538 6.06886 16.6849 6 16 6C10.4772 6 6 10.4772 6 16C6 21.5228 10.4772 26 16 26C21.5228 26 26 21.5228 26 16C26 15.3151 25.9311 14.6462 25.8 14" stroke="white" stroke-width="1.5" stroke-linecap="round"/>
<path d="M16 13C14.8954 13 14 13.6716 14 14.5C14 15.3284 14.8954 16 16 16C17.1046 16 18 16.6716 18 17.5C18 18.3284 17.1046 19 16 19M16 13C16.8708 13 17.6116 13.4174 17.8862 14M16 13V12M16 19C15.1292 19 14.3884 18.5826 14.1138 18M16 19V20" stroke="white" stroke-width="1.5" stroke-linecap="round"/>
<path d="M26.0699 7.0325C26.3641 6.74097 26.3663 6.2661 26.0748 5.97185C25.7832 5.67761 25.3084 5.6754 25.0141 5.96693L26.0699 7.0325ZM20.4721 10.467C20.1779 10.7585 20.1757 11.2334 20.4672 11.5276C20.7587 11.8219 21.2336 11.8241 21.5279 11.5325L20.4721 10.467ZM25.0283 6.22678L24.8975 6.96529L25.0283 6.22678ZM25.7728 6.97146L26.5113 6.84081V6.84081L25.7728 6.97146ZM21.5101 5.25398C21.0959 5.24831 20.7556 5.57947 20.7499 5.99364C20.7442 6.40782 21.0754 6.74817 21.4896 6.75384L21.5101 5.25398ZM25.2457 10.51C25.2514 10.9242 25.5918 11.2553 26.0059 11.2496C26.4201 11.244 26.7512 10.9036 26.7455 10.4894L25.2457 10.51ZM25.0141 5.96693L20.4721 10.467L21.5279 11.5325L26.0699 7.0325L25.0141 5.96693ZM24.8975 6.96529C24.948 6.97423 24.9755 6.99314 24.9909 7.00858C25.0064 7.02403 25.0253 7.05154 25.0343 7.10212L26.5113 6.84081C26.3872 6.13944 25.8607 5.61252 25.1591 5.48827L24.8975 6.96529ZM25.1591 5.48827C24.1444 5.30857 22.3469 5.26543 21.5101 5.25398L21.4896 6.75384C22.3571 6.76571 24.0255 6.81086 24.8975 6.96529L25.1591 5.48827ZM26.7455 10.4894C26.734 9.65259 26.6908 7.85536 26.5113 6.84081L25.0343 7.10212C25.1885 7.9742 25.2338 9.64256 25.2457 10.51L26.7455 10.4894Z" fill="white"/>
<defs>
<filter id="filter0_i_6358_44205" x="0" y="0" width="32" height="32" filterUnits="userSpaceOnUse" color-interpolation-filters="sRGB">
<feFlood flood-opacity="0" result="BackgroundImageFix"/>
<feBlend mode="normal" in="SourceGraphic" in2="BackgroundImageFix" result="shape"/>
<feColorMatrix in="SourceAlpha" type="matrix" values="0 0 0 0 0 0 0 0 0 0 0 0 0 0 0 0 0 0 127 0" result="hardAlpha"/>
<feOffset/>
<feGaussianBlur stdDeviation="3.5"/>
<feComposite in2="hardAlpha" operator="arithmetic" k2="-1" k3="1"/>
<feColorMatrix type="matrix" values="0 0 0 0 0 0 0 0 0 0 0 0 0 0 0 0 0 0 0.4 0"/>
<feBlend mode="normal" in2="shape" result="effect1_innerShadow_6358_44205"/>
</filter>
</defs>
</svg>
