<svg width="24" height="24" viewBox="0 0 24 24" fill="none" xmlns="http://www.w3.org/2000/svg">
<path d="M22.75 9.69345C23.556 10.6075 24 11.7815 24 13.0005V18.0005C24 20.7575 21.757 23.0005 19 23.0005H5C2.243 23.0005 0 20.7575 0 18.0005V13.0005C0 10.2435 2.243 8.00045 5 8.00045H9C9.553 8.00045 10 8.44845 10 9.00045C10 9.55245 9.553 10.0005 9 10.0005H5C3.346 10.0005 2 11.3465 2 13.0005V18.0005C2 19.6545 3.346 21.0005 5 21.0005H19C20.654 21.0005 22 19.6545 22 18.0005V13.0005C22 12.2695 21.733 11.5645 21.25 11.0165C20.885 10.6025 20.924 9.97045 21.339 9.60445C21.752 9.24045 22.384 9.27945 22.75 9.69345ZM5 15.5005C5 16.3285 5.672 17.0005 6.5 17.0005C7.328 17.0005 8 16.3285 8 15.5005C8 14.6725 7.328 14.0005 6.5 14.0005C5.672 14.0005 5 14.6725 5 15.5005ZM11.5 17.0005C12.328 17.0005 13 16.3285 13 15.5005C13 14.6725 12.328 14.0005 11.5 14.0005C10.672 14.0005 10 14.6725 10 15.5005C10 16.3285 10.672 17.0005 11.5 17.0005ZM12 11.0005V9.41445C12 8.34645 12.416 7.34145 13.172 6.58645L18.879 0.879453C20.049 -0.290547 21.951 -0.290547 23.121 0.879453C23.687 1.44545 24 2.19945 24 3.00045C24 3.80145 23.687 4.55545 23.121 5.12245L17.414 10.8295C16.659 11.5845 15.654 12.0015 14.586 12.0015H13C12.447 12.0015 12 11.5535 12 11.0015V11.0005ZM14 10.0005H14.586C15.12 10.0005 15.622 9.79245 16 9.41445L21.707 3.70745C21.896 3.51845 22 3.26745 22 3.00045C22 2.73345 21.896 2.48245 21.707 2.29345C21.316 1.90245 20.684 1.90345 20.293 2.29345L14.586 8.00045C14.214 8.37345 14 8.88845 14 9.41445V10.0005Z" fill="#5C5E64"/>
</svg>
