<svg width="32" height="32" viewBox="0 0 32 32" fill="none" xmlns="http://www.w3.org/2000/svg">
<g filter="url(#filter0_i_6906_14721)">
<rect width="32" height="32" rx="8" fill="#4AA147"/>
</g>
<path fill-rule="evenodd" clip-rule="evenodd" d="M16 7C14.6739 7 13.4021 7.52678 12.4645 8.46447C11.5268 9.40215 11 10.6739 11 12C11 13.3261 11.5268 14.5979 12.4645 15.5355C12.5304 15.6015 12.598 15.6654 12.6672 15.7273C11.8107 16.1198 11.0222 16.6641 10.3431 17.3431C8.84285 18.8434 8 20.8783 8 23V24C8 24.5523 8.44772 25 9 25C9.55228 25 10 24.5523 10 24V23C10 21.4087 10.6321 19.8826 11.7574 18.7574C12.8826 17.6321 14.4087 17 16 17C17.5913 17 19.1174 17.6321 20.2426 18.7574C21.3679 19.8826 22 21.4087 22 23V24C22 24.5523 22.4477 25 23 25C23.5523 25 24 24.5523 24 24V23C24 20.8783 23.1571 18.8434 21.6569 17.3431C20.9778 16.6641 20.1893 16.1198 19.3328 15.7273C19.402 15.6654 19.4696 15.6015 19.5355 15.5355C20.4732 14.5979 21 13.3261 21 12C21 10.6739 20.4732 9.40215 19.5355 8.46447C18.5979 7.52678 17.3261 7 16 7ZM13.8787 9.87868C14.4413 9.31607 15.2043 9 16 9C16.7956 9 17.5587 9.31607 18.1213 9.87868C18.6839 10.4413 19 11.2044 19 12C19 12.7956 18.6839 13.5587 18.1213 14.1213C17.5587 14.6839 16.7956 15 16 15C15.2043 15 14.4413 14.6839 13.8787 14.1213C13.3161 13.5587 13 12.7956 13 12C13 11.2044 13.3161 10.4413 13.8787 9.87868Z" fill="white"/>
<defs>
<filter id="filter0_i_6906_14721" x="0" y="0" width="32" height="32" filterUnits="userSpaceOnUse" color-interpolation-filters="sRGB">
<feFlood flood-opacity="0" result="BackgroundImageFix"/>
<feBlend mode="normal" in="SourceGraphic" in2="BackgroundImageFix" result="shape"/>
<feColorMatrix in="SourceAlpha" type="matrix" values="0 0 0 0 0 0 0 0 0 0 0 0 0 0 0 0 0 0 127 0" result="hardAlpha"/>
<feOffset/>
<feGaussianBlur stdDeviation="3.5"/>
<feComposite in2="hardAlpha" operator="arithmetic" k2="-1" k3="1"/>
<feColorMatrix type="matrix" values="0 0 0 0 0 0 0 0 0 0 0 0 0 0 0 0 0 0 0.4 0"/>
<feBlend mode="normal" in2="shape" result="effect1_innerShadow_6906_14721"/>
</filter>
</defs>
</svg>
