<svg width="28" height="30" viewBox="0 0 28 30" fill="none" xmlns="http://www.w3.org/2000/svg">
<path d="M8.58027 22.5C6.10329 22.5 4.86481 22.5 3.98306 21.9335C3.40677 21.5633 2.9425 21.0339 2.64286 20.4052C2.18441 19.4434 2.30764 18.1716 2.55411 15.6281C2.75986 13.5048 2.86273 12.4432 3.36863 11.6635C3.70077 11.1516 4.15001 10.7321 4.67662 10.4419C5.47871 10 6.51256 10 8.58027 10H19.421C21.4887 10 22.5226 10 23.3247 10.4419C23.8513 10.7321 24.3005 11.1516 24.6327 11.6635C25.1386 12.4432 25.2414 13.5048 25.4472 15.6281C25.6937 18.1716 25.8169 19.4434 25.3584 20.4052C25.0588 21.0339 24.5945 21.5633 24.0182 21.9335C23.1365 22.5 21.898 22.5 19.421 22.5" stroke="#5C5C5C" stroke-width="1.5"/>
<path d="M19.8346 10V7.5C19.8346 5.14298 19.8346 3.96447 19.1512 3.23223C18.4678 2.5 17.3679 2.5 15.168 2.5H12.8346C10.6347 2.5 9.5348 2.5 8.85139 3.23223C8.16797 3.96447 8.16797 5.14298 8.16797 7.5V10" stroke="#5C5C5C" stroke-width="1.5" stroke-linejoin="round"/>
<path d="M16.3214 20L11.6812 20C10.8817 20 10.4819 20 10.1418 20.1361C9.68826 20.3175 9.29994 20.67 9.03853 21.1374C8.84248 21.488 8.74552 21.9388 8.55161 22.8405C8.24862 24.2494 8.09713 24.9538 8.20016 25.5186C8.33754 26.2717 8.76573 26.9092 9.3609 27.2468C9.80728 27.5 10.4319 27.5 11.6812 27.5L16.3214 27.5C17.5707 27.5 18.1953 27.5 18.6417 27.2468C19.2369 26.9092 19.6651 26.2717 19.8024 25.5186C19.9055 24.9538 19.754 24.2494 19.451 22.8405C19.2571 21.9388 19.1601 21.488 18.9641 21.1374C18.7027 20.67 18.3143 20.3175 17.8608 20.1361C17.5207 20 17.1209 20 16.3214 20Z" stroke="#5C5C5C" stroke-width="1.5" stroke-linejoin="round"/>
<path d="M21 15H21.0105" stroke="#5C5C5C" stroke-width="2" stroke-linecap="round" stroke-linejoin="round"/>
</svg>
